<svg id="Layer_1" data-name="Layer 1" xmlns="http://www.w3.org/2000/svg" viewBox="0 0 40 40"><defs><style>.cls-1{opacity:0;}</style></defs><title>Icon</title><path class="cls-1" d="M7.36,34.29a.4.4,0,0,0,.4.4H31.51a.4.4,0,1,0,0-.8H7.77a.4.4,0,0,0-.4.4Zm0,0"/><path class="cls-1" d="M31.51,35.37H7.77a.4.4,0,1,0,0,.8H31.51a.4.4,0,1,0,0-.8Zm0,0"/><path d="M35.43.45h-28A3.63,3.63,0,0,0,3.83,4.05V35a4.23,4.23,0,0,0,4.4,4.62h27.2a.4.4,0,0,0,.4-.4V.85a.4.4,0,0,0-.4-.4ZM8.23,38.78A3.47,3.47,0,0,1,4.63,35V4.05A2.83,2.83,0,0,1,7.47,1.25h.36v30a.4.4,0,0,0,.81,0v-30H35V32.15H8.63V30.92a.4.4,0,0,0-.81,0v1.23l-.07.32c-.62,0-.34.23-1,.69-.18.13-.31.22-.18.4s.67-.61,1.12-.61H35v-.78H8.37a2.79,2.79,0,1,0,0,5.59h25a.4.4,0,0,0,.4-.4V33H35v5.81ZM31.63,33H33v4H8.37a2,2,0,1,1,0-4Zm0,0"/></svg>